<svg xmlns="http://www.w3.org/2000/svg" xmlns:xlink="http://www.w3.org/1999/xlink" width="500" zoomAndPan="magnify" viewBox="0 0 375 374.999991" height="500" preserveAspectRatio="xMidYMid meet" version="1.0"><defs><clipPath id="6064e18137"><path d="M 16 15.898438 L 359.398438 15.898438 L 359.398438 359.398438 L 16 359.398438 Z M 16 15.898438 " clip-rule="nonzero"/></clipPath></defs><g clip-path="url(#6064e18137)"><path fill="#0277b5" d="M 330.703125 15.898438 L 44.769531 15.898438 C 28.960938 15.898438 16.242188 28.789062 16.242188 44.425781 L 16.242188 330.875 C 16.242188 346.683594 29.132812 359.398438 44.769531 359.398438 L 330.53125 359.398438 C 346.339844 359.398438 359.054688 346.511719 359.054688 330.875 L 359.054688 44.425781 C 359.226562 28.789062 346.511719 15.898438 330.703125 15.898438 Z M 117.796875 299.257812 L 67.105469 299.257812 L 67.105469 147.011719 L 117.796875 147.011719 Z M 92.367188 128.625 C 76.386719 128.625 63.5 115.738281 63.5 99.757812 C 63.5 83.773438 76.386719 70.886719 92.367188 70.886719 C 108.347656 70.886719 121.234375 83.773438 121.234375 99.757812 C 121.234375 115.738281 108.347656 128.625 92.367188 128.625 Z M 308.535156 299.257812 L 257.671875 299.257812 L 256.46875 208.871094 C 256.46875 208.871094 257.671875 184.816406 231.382812 184.988281 C 205.089844 185.160156 201.484375 208.871094 201.484375 208.871094 L 201.484375 299.257812 L 150.277344 299.257812 L 150.277344 147.011719 L 199.421875 147.011719 L 199.421875 167.976562 C 199.421875 167.976562 201.484375 161.101562 212.824219 153.023438 C 224.164062 144.949219 242.894531 143.230469 250.972656 143.574219 C 259.046875 143.917969 270.046875 142.542969 288.433594 155.257812 C 308.191406 168.832031 308.707031 204.402344 308.707031 204.402344 Z M 308.535156 299.257812 " fill-opacity="1" fill-rule="nonzero"/></g></svg>