<svg xmlns="http://www.w3.org/2000/svg" version="1.1" xmlns:xlink="http://www.w3.org/1999/xlink" xmlns:svgjs="http://svgjs.dev/svgjs" width="1000" height="1125" viewBox="0 0 1000 1125"><g transform="matrix(1,0,0,1,0.00007343750002064553,0)"><svg viewBox="0 0 320 360" data-background-color="#002e58" preserveAspectRatio="xMidYMid meet" height="1125" width="1000" xmlns="http://www.w3.org/2000/svg" xmlns:xlink="http://www.w3.org/1999/xlink"><g id="tight-bounds" transform="matrix(1,0,0,1,0.000023499999997511622,0)"><svg viewBox="0 0 320 360" height="360" width="320"><g><svg></svg></g><g><svg viewBox="0 0 320 360" height="360" width="320"><g><path transform="translate(-74.99272,-51.79039) scale(4.65793,4.65793)" d="M20.6 59.9l0.8 1-0.4-1.3c-0.1-0.6-0.8 0.1-0.4 0.3M21.5 59.3c0.3 0.5 0.6 1 0.6 1.5 0 0.7 0.6 1 1.1 1.2-0.7-0.8-1.1-3-1.7-2.7M59.9 16.9c1.7 0 3.3-0.2 5.1 0.2 4.4 1.1 8.1 3.3 10.6 6.4l7 11.2c0.3 2.8 0.9 5.9 0.8 9.3 0.7 0 0.6-1 1.4-1.2-0.8 2-1.2 4.5-1.4 7.4-0.5-1.6 0-4 0.1-5.3-0.7 1.1-1.1 0.3-1.1-0.2 0.1-0.8-0.3-0.7-0.6-1-1.1-1-1.8-2.1-2.6-3.8 0.5-1.3 0.6-3.2-1-4.2-0.5-0.3-1.1-0.8-1.4-1.6-0.4-1.1-1.1-2.4-0.9-4.1 0.1-0.5-1.5 1.1-2.4 0.4-3.9-2.7-7.8-5.8-12.5-8.4-2.5 0-4.3-0.9-5.2-2-0.8-1-0.2-2.3 1-2.4 0.7 0 1.5-0.2 2.1 0.2 0.1-0.4 0.5-0.9 1-0.9M50 14.6l0.2 0.1c1 0.2 1.5 1.6 2.6 1.1 0 0.7 0.1 1.4-0.1 1.9-0.3 0.8-1.2 0.8-1.9 0.8-6.7-0.4-10.6 2.4-14.7 4.8-1.1 0.7-2.3 1.2-3.2 2.1-4.3 4-9 7.7-10.1 15.1l-0.9 8.2c-0.1 0.9-1.1 1.8-0.9 2.9l0.7 4.9c-0.7-0.7-1.1 0.2-0.9 0.6 0.1 0.3 0.5 1.3 1.1 0.4 0.8 1.5 1.6 4.4 2.7 5.7 3.4 4 7.8 7.6 11.4 11.2 0.9-0.2 1.6-0.2 1.8-0.8 0.3 0.6-0.3 1.2-0.8 1.3 1.6 1 3.4 1.9 5.8 2.1 3.1 0.2 6 0.7 8.7 1.4 1.4-0.4 2.8-0.6 4.3-0.7 0.5 0 0.8-0.8 1.4-1l0.1-1c0.6 0.9 0.5-0.3 0.1-0.9 0.7 0.6 0.9 1.1 1.2 1.5 0-0.3 0.8-1.4 0.8-0.1l0.2-1.3c0.3-0.2 0.4 1.1 0.7 0.2 0.3-0.9 0.9-0.2 1.5-0.5-0.2 0.4-0.1 1.2 0.6 0.7l0.8-0.7c0.5 1.2 1.3 0.7 1.7 0.5 4.4-2.8 8.8-6.1 13-9.4l-0.1 1.3 0.5-1.6c0.5 0.5 0.9 0.1 1.1-0.2 0.6-1 1.4-2 2.7-2.9-1.6 4.3-3.5 7.7-5.9 10.5l-1 1.2c0 0.7-0.2 1.6-1 1.7-0.4 0.1-1.2-0.2-1.8 0.4-0.3 0.4 0.7 1.2-0.1 0.6-0.7-0.5-1.4 0-2.2 0.2-0.6 0.2 0.4 0.8 0.6 1.2 0.2 0.4 0.4 0.8 0.3 1.3l-1.1-1.2c-1.3 0.7-2.1 2-3.2 3-0.5 0.4-0.3 1.1-0.3 1.7-0.7 0-1.5-0.2-1.9 0.2-0.3 0.4-0.2 1-0.2 1.6-1-0.1-1.1-1.6-2-1.3-0.9 0.2-1.9 0.3-2.7 0.8 0.6 1.2-1 0.5-0.8 0.7-1.5-0.9-2.8-1.6-4.4-1-3.4-1.1-7.6-0.6-10.7-0.2 0-0.5 0.1-1-0.1-1.1-0.2 0.5-0.8 0.3-0.7 0.3-1.9-1.3-3.8-2.1-5.8-3.2-1.8 0.2-3.5-0.7-4-1.2-1.4-1.3-3-0.6-4.3-0.9-2.8-0.7-3.8-3.6-4.1-5.6-0.2-1-1-1.4-1.3-1.3-1.3-4.2-3.3-8-4.9-11.9-0.4-1-0.3-2-0.3-3.1 0.5 0.2 1 0.1 0.9-0.6-0.5-3.3-1.7-5.8-3-8.2 0.7-3.4 0.8-7.4 2.4-10.4 1.4-2.7 4-4.1 5.8-6.4 0.6-0.8 0.6-1.9 1.2-2.6 2-2 4-4.1 6.2-5.9 1-0.8 2.2 0 3.7-0.3 0.5-1.8 2.5-3.4 4.4-2.9 0.8 0.2 2.4-1.9 2.9-2.1 0.8-0.3 0.4 0.8 0.4 1.5 1.9-1.5 4.5-2.3 6.9-3.2" fill="#00f30c" fill-rule="nonzero" stroke="none" stroke-width="1" stroke-linecap="butt" stroke-linejoin="miter" stroke-miterlimit="10" stroke-dasharray="" stroke-dashoffset="0" font-family="none" font-weight="none" font-size="none" text-anchor="none" style="mix-blend-mode: normal" data-fill-palette-color="tertiary"></path></g><g transform="matrix(1,0,0,1,70,90)"><svg viewBox="0 0 180 180" height="180" width="180"><g><svg viewBox="0 0 180 180" height="180" width="180"><g><svg viewBox="0 0 180 180" height="180" width="180"><g id="textblocktransform"><svg viewBox="0 0 180 180" height="180" width="180" id="textblock"><g><svg viewBox="0 0 180 180" height="180" width="180"><g transform="matrix(1,0,0,1,36.966991411008934,36.966991411008934)"><svg viewBox="0 0 106.06601717798213 106.06601717798213" height="106.06601717798213" width="106.06601717798213"><g><circle r="53" cx="53.033008588991066" cy="53.033008588991066" fill="#00f30c" data-fill-palette-color="accent"></circle><svg xmlns="http://www.w3.org/2000/svg" xmlns:xlink="http://www.w3.org/1999/xlink" version="1.1" x="15.90990257669732" y="15.90990257669732" viewBox="6.5 18 86 65" enable-background="new 0 0 100 100" xml:space="preserve" height="74.24621202458749" width="74.24621202458749" class="icon-wg-0" data-fill-palette-color="quaternary" id="wg-0"><g fill="#002e58" data-fill-palette-color="quaternary"><path d="M35.845 61.275l-10.72-5.09c-1.209-0.572-1.94-1.463-1.94-2.703v-0.318c0-1.24 0.731-2.131 1.94-2.704l10.72-5.089c0.381-0.191 0.731-0.318 1.177-0.318 1.018-0.031 1.94 0.859 1.94 2.004 0 0.922-0.509 1.559-1.336 1.94l-9.606 4.294 9.606 4.295c0.827 0.381 1.336 1.113 1.336 2.004 0 1.177-0.922 2.004-2.1 1.972C36.513 61.562 36.163 61.435 35.845 61.275z" fill="#002e58" data-fill-palette-color="quaternary"></path><path d="M41.889 66.047l12.438-25.988c0.35-0.731 0.922-1.113 1.686-1.113 1.018 0 1.876 0.859 1.876 1.813 0 0.35-0.127 0.7-0.222 0.923L45.229 67.669c-0.35 0.731-0.922 1.113-1.686 1.113-1.018 0-1.876-0.858-1.876-1.813C41.667 66.619 41.793 66.27 41.889 66.047z" fill="#002e58" data-fill-palette-color="quaternary"></path><path d="M64.155 45.371l10.72 5.089c1.208 0.573 1.94 1.464 1.94 2.704v0.318c0 1.24-0.731 2.131-1.94 2.703l-10.72 5.09c-0.381 0.191-0.731 0.318-1.177 0.318-1.018 0.031-1.94-0.859-1.94-2.004 0-0.923 0.509-1.559 1.336-1.94l9.606-4.295-9.606-4.294c-0.827-0.381-1.336-1.113-1.336-2.004 0-1.177 0.923-2.004 2.1-1.973C63.487 45.084 63.837 45.212 64.155 45.371z" fill="#002e58" data-fill-palette-color="quaternary"></path></g><path d="M92.5 21c0-1.657-1.343-3-3-3h-80c-1.657 0-3 1.343-3 3v59c0 1.657 1.343 3 3 3h80c1.657 0 3-1.343 3-3V21zM26 20.833c1.196 0 2.167 0.97 2.167 2.167s-0.97 2.167-2.167 2.167-2.167-0.97-2.167-2.167S24.804 20.833 26 20.833zM20 20.833c1.196 0 2.167 0.97 2.167 2.167s-0.97 2.167-2.167 2.167-2.167-0.97-2.167-2.167S18.804 20.833 20 20.833zM14 20.833c1.196 0 2.167 0.97 2.167 2.167s-0.97 2.167-2.167 2.167-2.167-0.97-2.167-2.167S12.804 20.833 14 20.833zM88.5 79h-78V29h78V79z" fill="#002e58" data-fill-palette-color="quaternary"></path></svg></g></svg></g><g><path d="M8.851 92.432c0-1.141 0.925-2.067 2.066-2.067 1.141 0 2.067 0.925 2.067 2.067 0 1.141-0.925 2.067-2.067 2.066-1.141 0-2.067-0.925-2.066-2.066zM169.98 92.432c0-1.141 0.925-2.067 2.067-2.067 1.141 0 2.067 0.925 2.066 2.067 0 1.141-0.925 2.067-2.066 2.066-1.141 0-2.067-0.925-2.067-2.066z" fill="#00f30c" data-fill-palette-color="primary"></path><path d="M22.262 74.079v0c0.198-0.591 0.188-1.06-0.032-1.406-0.226-0.348-0.782-0.671-1.668-0.969v0l-14.315-4.801c-0.469 0.584-0.896 0.941-1.282 1.07v0l-1.964-0.932 1.932-5.761 2.129 0.441c0.219 0.367 0.344 0.913 0.374 1.636v0l14.092 4.747c1.886 0.633 3.086 1.444 3.599 2.435 0.522 0.986 0.51 2.294-0.035 3.922-0.548 1.635-1.445 2.89-2.69 3.766v0c-0.101-0.034-0.277-0.093-0.528-0.177-0.258-0.086-0.658-0.28-1.201-0.581-0.549-0.303-0.985-0.617-1.309-0.942v0l0.743-2.216c0.436-0.112 1.104-0.07 2.003 0.126v0c0.046-0.075 0.097-0.195 0.152-0.358zM24.711 47.012c1.982 1.102 3.2 2.371 3.653 3.807 0.463 1.433 0.135 3.155-0.983 5.166-1.118 2.011-2.373 3.157-3.766 3.437-1.396 0.286-3.099-0.13-5.11-1.248v0l-7.328-4.075c-0.528 0.458-1.013 0.73-1.456 0.818v0l-1.761-1.275 2.949-5.303 2.012 0.823c0.152 0.395 0.176 0.952 0.073 1.669v0l7.415 4.122c1.089 0.606 1.993 0.877 2.712 0.814 0.718-0.064 1.335-0.559 1.85-1.486 0.512-0.921 0.604-1.72 0.275-2.397-0.324-0.673-1.016-1.305-2.077-1.894v0l-7.415-4.123c-0.571 0.494-1.056 0.767-1.456 0.818v0l-1.76-1.275 2.759-4.964 2.012 0.823c0.149 0.401 0.173 0.957 0.074 1.669v0zM24.219 29.628l2.466-2.554 14.361 6.677c0.688-0.34 1.257-0.496 1.708-0.466v0l1.373 1.685-4.214 4.364-1.733-1.313c-0.053-0.337 0.049-0.814 0.306-1.433v0l-2.051-1.012-3.606 3.735 1.061 1.923c0.596-0.264 1.112-0.388 1.548-0.372v0l1.373 1.685-4.111 4.257-1.732-1.313c-0.07-0.501 0.097-1.146 0.501-1.936v0zM28.053 30.883l-0.249 0.258c0.758 0.732 1.494 1.742 2.206 3.028v0l1.606 2.961 2.577-2.668-2.959-1.489c-1.149-0.557-2.095-1.157-2.838-1.8v0zM45.746 22.064v0l3.524 5.842c0.674-0.128 1.247-0.102 1.72 0.078v0l0.811 1.845-4.352 2.626-1.262-1.573c0.061-0.502 0.306-1.021 0.733-1.558v0l-6.196-10.271c-0.741 0.145-1.328 0.128-1.762-0.052v0l-0.811-1.845 4.582-2.764 9.619 5.952c0.7 0.429 1.518 1.066 2.454 1.912v0l0.477 0.444 0.195-0.235c-0.988-1.162-1.745-2.18-2.272-3.054v0l-3.473-5.757c-0.655 0.108-1.23 0.072-1.727-0.109v0l-0.811-1.845 4.352-2.626 1.254 1.579c-0.066 0.52-0.302 1.046-0.709 1.578v0l7.706 12.774-3.492 2.107-9.702-5.995c-0.7-0.429-1.524-1.075-2.47-1.937v0l-0.461-0.419-0.191 0.243c0.982 1.166 1.737 2.185 2.264 3.06zM4.981 116.596v0c0.198 0.591 0.494 0.96 0.887 1.108 0.384 0.144 1.022 0.066 1.915-0.234v0l14.425-4.846c0.017-0.761 0.144-1.311 0.38-1.649v0l2.14-0.436 1.948 5.798-1.973 0.936c-0.403-0.158-0.836-0.52-1.298-1.085v0l-14.205 4.751c-1.898 0.638-3.354 0.718-4.368 0.24-1.02-0.476-1.807-1.537-2.361-3.184-0.551-1.641-0.594-3.193-0.127-4.658v0c0.101-0.034 0.28-0.094 0.538-0.18 0.251-0.084 0.691-0.173 1.317-0.264 0.623-0.083 1.165-0.094 1.626-0.032v0l0.75 2.234c-0.289 0.349-0.853 0.72-1.692 1.114v0c0.009 0.088 0.041 0.217 0.098 0.387zM24.733 137.881c-1.994 1.108-3.726 1.48-5.196 1.113-1.47-0.366-2.77-1.563-3.897-3.591-1.124-2.023-1.439-3.707-0.943-5.053 0.499-1.34 1.763-2.573 3.792-3.701v0l7.38-4.103c-0.114-0.696-0.089-1.259 0.073-1.691v0l2.021-0.827 2.972 5.346-1.769 1.28c-0.425-0.082-0.915-0.356-1.47-0.822v0l-7.476 4.156c-1.095 0.609-1.804 1.238-2.126 1.888-0.331 0.647-0.237 1.437 0.282 2.369 0.516 0.927 1.149 1.432 1.901 1.515 0.748 0.077 1.656-0.181 2.722-0.773v0l7.476-4.157c-0.119-0.746-0.093-1.306 0.078-1.681v0l2.02-0.828 2.784 5.007-1.769 1.28c-0.425-0.082-0.917-0.359-1.475-0.831v0zM40.882 139.12l2.486 2.576-7.234 14.215c0.321 0.704 0.458 1.286 0.412 1.745v0l-1.746 1.313-4.242-4.394 1.373-1.699c0.348-0.041 0.826 0.078 1.436 0.356v0l1.091-2.035-3.627-3.757-1.98 0.999c0.247 0.609 0.355 1.136 0.324 1.582v0l-1.739 1.32-4.138-4.286 1.373-1.7c0.512-0.052 1.156 0.138 1.931 0.569v0zM39.478 142.936l-0.249-0.258c-0.763 0.737-1.805 1.438-3.125 2.105v0l-3.044 1.515 2.598 2.69 1.606-2.933c0.601-1.134 1.241-2.065 1.92-2.794v0zM49.142 157.117v0l-3.551 5.884c0.424 0.542 0.668 1.069 0.731 1.58v0l-1.268 1.581-4.385-2.646 0.816-1.854c0.476-0.185 1.055-0.215 1.739-0.089v0l6.232-10.33c-0.476-0.597-0.734-1.132-0.773-1.606v0l1.259-1.586 4.607 2.78-0.782 11.365c-0.051 0.829-0.235 1.86-0.554 3.093v0l-0.162 0.634 0.304 0.055c0.571-1.421 1.122-2.572 1.653-3.452v0l3.499-5.799c-0.413-0.535-0.653-1.068-0.721-1.597v0l1.268-1.581 4.386 2.646-0.817 1.854c-0.5 0.186-1.083 0.222-1.748 0.106v0l-7.765 12.868-3.508-2.117 0.781-11.459c0.051-0.829 0.239-1.865 0.563-3.11v0l0.152-0.617-0.303-0.055c-0.571 1.421-1.122 2.572-1.653 3.452z" fill="#00f30c" data-fill-palette-color="primary"></path><path d="M90.383 15.281l-0.688-6.709c-0.071-0.693-0.121-1.767-0.15-3.224v0l-0.015-0.628-0.259 0.007c-0.246 1.505-0.47 2.701-0.672 3.588v0l-2.399 10.444-3.433 0.352-4.656-9.721c-0.402-0.739-0.791-1.672-1.167-2.8v0l-0.219-0.577-0.255 0.046c0.309 1.521 0.516 2.79 0.62 3.805v0l0.696 6.788c0.664 0.172 1.172 0.44 1.522 0.804v0l-0.054 2.015-5.056 0.518-0.471-1.961c0.269-0.428 0.712-0.793 1.328-1.096v0l-1.223-11.933c-0.732-0.185-1.256-0.451-1.572-0.798v0l0.054-2.015 5.887-0.604 4.835 10.013c0.598 1.085 1.015 2.096 1.251 3.031v0l0.124 0.427 0.356-0.036c-0.035-1.056 0.153-2.275 0.565-3.658v0l2.525-10.767 5.779-0.592 0.461 1.962c-0.238 0.404-0.694 0.771-1.367 1.1v0l1.212 11.824c0.693 0.189 1.195 0.441 1.507 0.755v0l-0.037 2.174-5.887 0.603-0.475-2.091c0.242-0.371 0.686-0.72 1.333-1.046zM109.283 1.994l3.468 0.761 1.842 15.73c0.65 0.408 1.081 0.811 1.293 1.21v0l-0.716 2.053-5.926-1.301 0.211-2.163c0.259-0.221 0.719-0.385 1.38-0.492v0l-0.213-2.276-5.071-1.114-1.081 1.912c0.537 0.369 0.913 0.743 1.128 1.123v0l-0.716 2.053-5.78-1.269 0.21-2.164c0.39-0.322 1.027-0.518 1.911-0.588v0zM110.224 5.917l-0.35-0.076c-0.226 1.03-0.7 2.185-1.422 3.465v0l-1.68 2.92 3.624 0.796-0.284-3.301c-0.128-1.27-0.113-2.391 0.045-3.36v0zM127.01 16.362v0l-3.129 6.064c0.462 0.507 0.74 1.009 0.835 1.505v0l-1.146 1.658-4.517-2.331 0.678-1.899c0.459-0.211 1.03-0.275 1.711-0.192v0l5.5-10.66c-0.512-0.555-0.805-1.064-0.88-1.528v0l1.147-1.658 4.755 2.453-0.028 11.312c0.001 0.821-0.112 1.852-0.341 3.092v0l-0.128 0.639 0.301 0.044c0.472-1.45 0.942-2.629 1.411-3.536v0l3.083-5.976c-0.436-0.501-0.706-1.01-0.813-1.527v0l1.147-1.658 4.516 2.33-0.686 1.896c-0.477 0.216-1.049 0.291-1.716 0.223v0l-6.84 13.258-3.624-1.87 0.02-11.405c-0.001-0.821 0.117-1.861 0.355-3.118v0l0.114-0.613-0.306-0.035c-0.478 1.447-0.951 2.624-1.419 3.532zM151.004 37.774c-1.542 1.663-3.064 2.544-4.567 2.643-1.502 0.108-3.097-0.62-4.783-2.185-1.687-1.565-2.501-3.056-2.442-4.476 0.054-1.424 0.864-2.979 2.428-4.666v0l5.701-6.147c-0.319-0.621-0.468-1.158-0.447-1.609v0l1.657-1.407 4.448 4.126-1.278 1.758c-0.42 0.053-0.966-0.055-1.638-0.325v0l-5.769 6.22c-0.848 0.914-1.326 1.727-1.435 2.44-0.109 0.713 0.225 1.43 1.003 2.151 0.773 0.717 1.527 0.996 2.263 0.837 0.731-0.154 1.509-0.676 2.334-1.566v0l5.769-6.221c-0.344-0.672-0.494-1.208-0.448-1.609v0l1.657-1.406 4.164 3.862-1.278 1.758c-0.425 0.049-0.971-0.06-1.638-0.325v0zM160.771 54.683l-3.771 2.483-6.617-10.053 1.655-1.411c0.368 0.028 0.868 0.27 1.502 0.726v0l9.904-6.518c-0.174-0.735-0.193-1.294-0.057-1.677v0l1.951-0.963 6.501 9.879-3.772 2.482-1.246-1.478c0.069-0.522 0.429-1.14 1.079-1.852v0l-2.226-3.382-3.73 2.455 1.979 3.008c0.549-0.107 0.972-0.128 1.27-0.062v0l0.744 1.475-3.855 2.537-1.077-1.256c0.024-0.278 0.21-0.658 0.559-1.141v0l-1.98-3.008-4.145 2.729 2.334 3.547c0.877-0.307 1.589-0.391 2.134-0.249v0zM167.417 71.373l-4.238 1.559-4.099-11.146 1.933-0.997c0.352 0.111 0.784 0.461 1.297 1.049v0l11.127-4.092c-0.002-0.755 0.107-1.304 0.327-1.647v0l2.118-0.493 2.094 5.695-1.936 0.987c-0.401-0.149-0.839-0.493-1.312-1.032v0l-11.305 4.157 1.415 3.846c0.924-0.1 1.635-0.022 2.131 0.234v0zM89.656 176.471l0.699-6.767c0.071-0.693 0.245-1.758 0.519-3.196v0l0.114-0.618-0.254-0.056c-0.554 1.429-1.021 2.564-1.401 3.405v0l-4.512 9.803-3.453-0.357-2.592-10.536c-0.249-0.819-0.442-1.822-0.579-3.01v0l-0.097-0.61-0.27 0.003c0 1.553-0.053 2.841-0.159 3.863v0l-0.706 6.836c0.615 0.31 1.059 0.683 1.335 1.118v0l-0.474 1.971-5.095-0.526-0.051-2.025c0.352-0.37 0.863-0.644 1.535-0.822v0l1.239-12.001c-0.685-0.337-1.146-0.712-1.384-1.122v0l0.463-1.972 5.927 0.612 2.717 10.869c0.364 1.191 0.565 2.271 0.605 3.242v0l0.034 0.444 0.367 0.037c0.182-1.048 0.618-2.209 1.309-3.484v0l4.693-10.104 5.817 0.6 0.061 2.026c-0.317 0.354-0.845 0.626-1.584 0.817v0l-1.229 11.902c0.646 0.327 1.09 0.679 1.331 1.057v0l-0.48 2.13-5.926-0.612-0.038-2.153c0.313-0.321 0.819-0.575 1.519-0.764zM104.279 160.235l3.497-0.767 8.31 13.615c0.768 0.096 1.335 0.284 1.702 0.563v0l0.202 2.176-5.965 1.307-0.727-2.06c0.148-0.317 0.5-0.663 1.056-1.036v0l-1.161-1.996-5.1 1.118-0.188 2.21c0.648 0.109 1.154 0.294 1.517 0.554v0l0.211 2.173-5.819 1.276-0.727-2.061c0.224-0.463 0.723-0.912 1.497-1.346v0zM106.792 163.431l-0.35 0.076c0.227 1.036 0.278 2.291 0.153 3.765v0l-0.306 3.386 3.653-0.8-1.655-2.906c-0.65-1.107-1.107-2.14-1.372-3.1v0zM123.933 162.639v0l3.149 6.108c0.684-0.077 1.26-0.008 1.729 0.206v0l0.682 1.909-4.553 2.347-1.15-1.668c0.092-0.502 0.37-1.011 0.835-1.527v0l-5.528-10.723c-0.758 0.092-1.349 0.031-1.773-0.183v0l-0.691-1.904 4.783-2.466 9.268 6.625c0.679 0.478 1.46 1.176 2.343 2.093v0l0.455 0.47 0.206-0.229c-0.911-1.231-1.602-2.304-2.072-3.217v0l-3.104-6.021c-0.672 0.071-1.252-0.004-1.737-0.223v0l-0.682-1.909 4.552-2.347 1.151 1.668c-0.103 0.523-0.379 1.038-0.826 1.544v0l6.886 13.358-3.642 1.878-9.349-6.673c-0.679-0.478-1.463-1.182-2.352-2.11v0l-0.446-0.453-0.206 0.229c0.911 1.231 1.602 2.304 2.072 3.218zM151.016 147.073c1.551 1.673 2.323 3.267 2.317 4.782-0.006 1.515-0.86 3.062-2.562 4.64-1.697 1.573-3.258 2.279-4.683 2.116-1.42-0.166-2.919-1.101-4.497-2.802v0l-5.74-6.193c-0.649 0.276-1.202 0.386-1.659 0.331v0l-1.285-1.766 4.486-4.158 1.664 1.414c0.021 0.432-0.128 0.973-0.449 1.623v0l5.815 6.273c0.852 0.919 1.631 1.458 2.339 1.616 0.707 0.168 1.452-0.112 2.234-0.837 0.778-0.721 1.118-1.457 1.02-2.207-0.103-0.745-0.569-1.565-1.399-2.46v0l-5.814-6.273c-0.696 0.293-1.247 0.401-1.653 0.324v0l-1.284-1.765 4.202-3.895 1.663 1.414c0.021 0.432-0.131 0.976-0.456 1.63v0zM164.088 132.342l3.796 2.5-6.676 10.133-1.953-0.977c-0.125-0.352-0.102-0.913 0.071-1.68v0l-9.975-6.572c-0.61 0.456-1.121 0.695-1.533 0.718v0l-1.668-1.409 6.561-9.959 3.795 2.501-0.867 1.751c-0.512 0.139-1.229 0.052-2.151-0.261v0l-2.243 3.405 3.754 2.473 1.997-3.032c-0.315-0.462-0.499-0.845-0.552-1.15v0l1.052-1.272 3.887 2.561-0.728 1.486c-0.268 0.093-0.693 0.076-1.275-0.054v0l-1.997 3.031 4.169 2.747 2.359-3.579c-0.635-0.688-0.998-1.312-1.089-1.873v0zM171.133 114.858l4.265 1.572-4.141 11.236-2.124-0.507c-0.202-0.315-0.306-0.866-0.313-1.652v0l-11.208-4.131c-0.49 0.583-0.933 0.932-1.33 1.047v0l-1.945-0.992 2.116-5.74 2.124 0.507c0.215 0.376 0.327 0.926 0.335 1.65v0l11.385 4.196 1.428-3.873c-0.774-0.526-1.27-1.051-1.486-1.576v0z" fill="#130912" data-fill-palette-color="secondary"></path></g></svg></g></svg></g></svg></g><g></g></svg></g></svg></g></svg></g><defs></defs></svg><rect width="320" height="360" fill="none" stroke="none" visibility="hidden"></rect></g></svg></g></svg>